PathFileType  4	(X/Y/Z) C:\Users\antoi\Documents\MyRepositories\mobilecap\ResultsAnalysis
DataRate	CameraRate	NumFrames	NumMarkers	Units	OrigDataRate	OrigDataStartFrame	OrigNumFrames
100.0	100.0	4	51	mm	100.0	1	139
Frame#	Time	r_knee			r_shank_antsup			r_ankle			r_calc			r_5meta			r_toe			L_knee			L_shank_antsup			L_ankle			L_calc			L_5meta			L_toe			r_sh2			r_sh3			r_sh4			L_sh2			L_sh3			r_thigh1			r_thigh2			r_thigh3			r_thigh4			r_thigh5			L_thigh1			L_thigh2			L_thigh3			L_thigh4			r.ASIS			r.PSIS			L.ASIS			L.PSIS			C7			R_Shoulder			L_Shoulder			R_Sternum			L_Sternum			R_humerus			R_elbow_med			R_elbow_lat			R_forearm			R_wrist_radius			R_wrist_ulna			L_humerus			L_elbow_med			L_elbow_lat			L_forearm			L_wrist_radius			L_wrist_ulna			R_HJC			L_HJC			R_HJC_reg			L_HJC_reg			
		X1	Y1	Z1	X2	Y2	Z2	X3	Y3	Z3	X4	Y4	Z4	X5	Y5	Z5	X6	Y6	Z6	X7	Y7	Z7	X8	Y8	Z8	X9	Y9	Z9	X10	Y10	Z10	X11	Y11	Z11	X12	Y12	Z12	X13	Y13	Z13	X14	Y14	Z14	X15	Y15	Z15	X16	Y16	Z16	X17	Y17	Z17	X18	Y18	Z18	X19	Y19	Z19	X20	Y20	Z20	X21	Y21	Z21	X22	Y22	Z22	X23	Y23	Z23	X24	Y24	Z24	X25	Y25	Z25	X26	Y26	Z26	X27	Y27	Z27	X28	Y28	Z28	X29	Y29	Z29	X30	Y30	Z30	X31	Y31	Z31	X32	Y32	Z32	X33	Y33	Z33	X34	Y34	Z34	X35	Y35	Z35	X36	Y36	Z36	X37	Y37	Z37	X38	Y38	Z38	X39	Y39	Z39	X40	Y40	Z40	X41	Y41	Z41	X42	Y42	Z42	X43	Y43	Z43	X44	Y44	Z44	X45	Y45	Z45	X46	Y46	Z46	X47	Y47	Z47	X48	Y48	Z48	X49	Y49	Z49	X50	Y50	Z50	X51	Y51	Z51	

1	0.00000000	-93.93419	490.22972	-139.56649	-22.53432	423.30713	-142.89691	59.94510	104.74372	-160.71039	29.86494	44.64635	-215.75029	186.83752	119.25483	-114.50176	197.65544	168.63376	-163.51116	-405.81591	482.29537	-417.82938	-408.44159	386.78875	-399.61112	-618.53573	123.69285	-382.81144	-702.95123	100.25401	-338.39238	-534.27587	39.13024	-416.67901	-483.55987	54.16798	-358.72267	21.40819	318.69928	-147.36859	-83.18876	396.12583	-107.20126	-47.52541	286.70753	-107.63665	-473.66474	433.19046	-443.82209	-534.94317	328.46016	-445.95602	-170.02589	757.91320	-119.68275	-117.73050	662.90884	-133.99949	-148.57014	614.82329	-99.19144	-267.40539	700.02467	-94.42664	-201.36446	599.92184	-117.29765	-260.86750	702.66319	-442.50639	-284.30644	567.90043	-414.58084	-362.29718	713.66403	-480.12368	-388.45936	587.75486	-440.11995	-197.59459	930.29221	-165.29184	-405.61669	947.23274	-233.15892	-206.60832	930.63454	-422.49465	-407.00079	959.32509	-325.00558	-383.48180	1413.04826	-290.01632	-336.03768	1385.35939	-120.83299	-289.74398	1389.77999	-434.83084	-255.33861	1346.40413	-253.77237	-254.04961	1348.96124	-299.55116	-318.98493	1254.06454	-60.81325	-390.71159	1055.46930	-128.08435	-406.86069	1067.93781	-62.28924	-371.44487	1001.97361	-20.93261	-328.15971	834.44055	-27.50994	-375.66936	839.18102	-5.00919	-232.48090	1263.21050	-490.57441	-255.76332	1051.65256	-463.45972	-221.89169	1074.55837	-534.68111	-149.74810	1049.86667	-525.87222	-24.11860	934.41785	-475.62217	-44.65635	917.89808	-518.35920	-274.42517	837.46886	-188.07175	-283.67383	842.01825	-377.35252	-263.39207	833.26765	-212.73351	-265.93064	855.43901	-381.11747	
2	0.01000000	-79.07512	489.27409	-139.74669	-8.28380	420.67706	-143.92871	66.50134	101.67570	-161.74766	34.93654	44.38651	-217.53442	192.59799	112.50538	-114.07297	206.48830	160.76165	-163.28895	-392.86275	481.41430	-417.33185	-397.52202	385.62250	-399.18362	-614.36174	127.76439	-383.42476	-699.51291	107.47722	-338.89679	-533.28487	39.56990	-416.75240	-481.99305	53.60309	-358.93420	33.25046	315.18200	-148.63002	-69.31072	394.63602	-107.88926	-35.75383	284.57930	-108.68015	-461.29397	433.71553	-443.42060	-525.59211	330.63562	-445.63289	-154.22518	757.03348	-117.37614	-102.04145	662.28387	-132.59678	-133.14870	613.74076	-98.75535	-251.94342	699.02595	-93.61222	-185.89581	599.06894	-117.07299	-246.73421	701.15398	-441.62556	-270.79234	566.48195	-414.02208	-348.35484	712.77918	-478.86377	-374.83239	586.82713	-439.18523	-182.32465	929.47579	-163.50727	-390.43279	946.05669	-231.71550	-191.37697	929.27503	-420.95577	-391.85478	958.31653	-323.36602	-369.61850	1411.55476	-287.87250	-321.99776	1383.85189	-118.77664	-275.92063	1388.67965	-432.75951	-241.18294	1345.29390	-251.71511	-239.96188	1347.89180	-297.57190	-304.71550	1252.47778	-58.92735	-376.17481	1053.93738	-126.59504	-392.52335	1066.35058	-60.86739	-357.61065	1000.34610	-19.44403	-314.87029	832.62767	-26.01709	-362.35744	837.43482	-3.69866	-219.55246	1261.67509	-488.95845	-244.49460	1050.38935	-460.59248	-211.96634	1072.11786	-531.83460	-139.07966	1047.64003	-524.10339	-13.16416	932.32886	-474.06259	-34.14068	915.50293	-516.55877	-259.21139	836.55043	-186.28755	-268.42984	840.77801	-375.57931	-247.89450	831.76262	-211.19461	-250.50611	854.30054	-379.69768	
3	0.02000000	-64.34135	488.41730	-139.79760	5.87510	418.23402	-144.86602	73.05800	98.79945	-162.72810	39.80192	44.49008	-219.20838	198.35965	105.61277	-113.81024	215.30977	152.68443	-163.23021	-379.46975	480.46279	-416.84691	-386.23551	384.44157	-398.76604	-609.88906	132.00444	-384.03338	-695.70377	115.01249	-339.36506	-532.21969	40.08573	-416.81090	-480.36424	53.01397	-359.12413	45.10434	311.90114	-149.81214	-55.49411	393.28470	-108.47828	-23.99370	282.63165	-109.63278	-448.55234	434.25947	-442.97431	-515.82721	332.87191	-445.30077	-138.44753	756.28194	-115.06987	-86.46174	661.69670	-131.13813	-117.95998	612.76172	-98.26316	-236.55790	698.25740	-92.80341	-170.61147	598.36227	-116.78682	-232.35203	699.69565	-440.69877	-256.91357	565.09352	-413.44113	-334.14863	711.89760	-477.54407	-360.86824	585.87135	-438.20984	-166.97020	928.73681	-161.68556	-375.16557	944.99784	-230.24555	-176.00474	927.97174	-419.37540	-376.55472	957.35959	-321.74864	-355.73803	1410.16878	-285.66852	-307.92594	1382.44120	-116.65048	-262.10058	1387.70231	-430.65085	-226.99442	1344.32545	-249.60749	-225.82612	1346.96941	-295.53844	-290.41886	1250.99506	-56.99582	-361.58288	1052.49422	-125.07127	-378.13880	1064.84890	-59.41356	-343.71015	998.80852	-17.92567	-301.44284	830.93209	-24.49295	-348.91823	835.78927	-2.36755	-206.63544	1260.23742	-487.28431	-233.20766	1049.19202	-457.65856	-202.01367	1069.83761	-529.00993	-128.48044	1045.46277	-522.34114	-2.39280	930.14746	-472.56844	-23.84489	913.04468	-514.81744	-243.91196	835.72015	-184.46077	-253.05867	839.59844	-373.76582	-232.39197	830.42207	-209.58438	-234.94522	853.19500	-378.22219	
4	0.03000000	-49.82332	487.75293	-139.61019	19.87162	416.11937	-145.60206	79.58401	96.25602	-163.58016	44.31284	45.17552	-220.65594	204.09985	98.50514	-113.83950	224.04494	144.30250	-163.45625	-365.24850	479.38547	-416.39055	-374.26017	383.22697	-398.38133	-604.83653	136.54453	-384.62727	-691.18323	123.13065	-339.76467	-531.01330	40.75235	-416.84108	-478.63087	52.37542	-359.26948	56.95807	309.03222	-150.81939	-41.79279	392.18963	-108.86331	-12.27176	281.00798	-110.38855	-435.10605	434.83161	-442.45404	-505.29737	335.22736	-444.95338	-122.71972	755.78098	-112.77729	-71.07258	661.20958	-129.58467	-103.15228	612.00183	-97.65627	-221.31055	697.91111	-91.98217	-155.63586	597.93254	-116.36335	-217.50719	698.34638	-439.67615	-242.35437	563.76492	-412.81257	-319.45845	711.01655	-476.11077	-346.27530	584.85967	-437.15940	-151.47143	928.15369	-159.80230	-359.75092	944.17154	-228.73414	-160.38279	926.77291	-417.71658	-360.99125	956.50906	-320.18601	-341.82426	1408.98821	-283.35960	-293.80063	1381.21646	-114.40548	-248.28524	1386.95080	-428.47844	-212.74903	1343.62259	-247.41223	-211.60944	1346.31993	-293.40980	-276.07004	1249.70907	-54.98386	-346.88942	1051.22174	-123.48494	-363.66619	1063.51166	-57.90123	-329.68442	997.44211	-16.35268	-287.76082	829.45478	-22.91328	-335.25228	834.33748	-0.99819	-193.74456	1258.98256	-485.51661	-221.89961	1048.13320	-454.61451	-192.00321	1067.85474	-526.21959	-118.00754	1043.37954	-520.58828	8.04199	927.79873	-471.19617	-13.94519	910.47649	-513.18747	-228.47079	835.06725	-182.55649	-237.46706	838.53589	-371.87908	-216.88027	829.40091	-207.83265	-219.15968	852.15526	-376.62863	
